<?xml version="1.0" standalone="no"?><!DOCTYPE svg PUBLIC "-//W3C//DTD SVG 1.1//EN" "http://www.w3.org/Graphics/SVG/1.1/DTD/svg11.dtd"><svg t="1607485994511" class="icon" viewBox="0 0 1024 1024" version="1.1" xmlns="http://www.w3.org/2000/svg" p-id="1697" width="16" height="16" xmlns:xlink="http://www.w3.org/1999/xlink"><defs><style type="text/css"></style></defs><path d="M766.976 163.84h-112.64c-8.192-14.336-25.6-24.576-45.056-24.576H593.92c-13.312-21.504-44.032-41.984-76.8-41.984s-63.488 20.48-76.8 41.984h-16.384c-19.456 0-35.84 10.24-45.056 24.576H266.24c-43.008 0-77.824 34.816-77.824 77.824v621.568c0 43.008 34.816 77.824 77.824 77.824h500.736c43.008 0 77.824-34.816 77.824-77.824V242.688c0-43.008-34.816-78.848-77.824-78.848z m-334.848 7.168H450.56c12.288 0 22.528 3.072 26.624-8.192 4.096-10.24 22.528-24.576 39.936-24.576s35.84 14.336 39.936 24.576c4.096 10.24 15.36 7.168 26.624 7.168h16.384c8.192 0 18.432 5.12 18.432 14.336 0 8.192-7.168 14.336-19.456 14.336H432.128c-9.216 0-19.456-4.096-19.456-14.336 2.048-9.216 14.336-12.288 19.456-13.312z m368.64 693.248c0 19.456-15.36 34.816-33.792 34.816H267.264c-18.432 0-33.792-15.36-33.792-34.816V242.688c0-19.456 15.36-34.816 33.792-34.816h112.64c2.048 3.072 3.072 5.12 5.12 7.168 9.216 10.24 22.528 16.384 37.888 16.384h188.416c14.336 0 27.648-6.144 36.864-16.384 2.048-2.048 4.096-5.12 5.12-7.168h112.64c18.432 0 33.792 15.36 33.792 34.816v621.568z" fill="#8a8a8a" p-id="1698"></path><path d="M701.44 422.912h-368.64c-11.264 0-20.48-9.216-20.48-20.48s9.216-20.48 20.48-20.48h368.64c11.264 0 20.48 9.216 20.48 20.48s-9.216 20.48-20.48 20.48zM701.44 621.568h-368.64c-11.264 0-20.48-9.216-20.48-20.48s9.216-20.48 20.48-20.48h368.64c11.264 0 20.48 9.216 20.48 20.48s-9.216 20.48-20.48 20.48zM537.6 806.912h-204.8c-11.264 0-20.48-9.216-20.48-20.48s9.216-20.48 20.48-20.48h204.8c11.264 0 20.48 9.216 20.48 20.48s-9.216 20.48-20.48 20.48z" fill="#8a8a8a" p-id="1699"></path></svg>