<?xml version="1.0" standalone="no"?><!DOCTYPE svg PUBLIC "-//W3C//DTD SVG 1.1//EN" "http://www.w3.org/Graphics/SVG/1.1/DTD/svg11.dtd"><svg t="1599128173225" class="icon" viewBox="0 0 1024 1024" version="1.1" xmlns="http://www.w3.org/2000/svg" p-id="27266" width="32" height="32" xmlns:xlink="http://www.w3.org/1999/xlink"><defs><style type="text/css"></style></defs><path d="M887.6 914.3h-750c-22.1 0-40-18-40-40v-94.5c0-35.1 44.7-52.7 83.7-64 42-12.3 95.9-21.9 148-31.3 24.1-4.3 46.8-8.4 67.6-12.6 5.8-2.1 12.6-5.7 14-11.9 1.3-5.9-1.8-14-7.8-19.7-68.2-65.5-102.7-142.1-102.7-227.7 0-82.3 18.8-157.2 53-211 18.4-28.9 40.8-51.4 66.6-67.1 27.6-16.7 58.5-25.1 91.9-25.1 33.4 0 64.3 8.5 91.9 25.1 25.9 15.6 48.3 38.2 66.6 67.1 34.2 53.8 53 128.7 53 211 0 93.9-54.8 175-100.7 226.4l-0.2 0.3c-6.2 6.7-8.8 15.6-6.5 22.1 2.4 6.8 10 9.2 15.9 10l0.7 0.1c15.6 2.7 31.9 5.3 47.7 7.9 56.7 9.3 115.3 18.8 159.9 31.6 25.3 7.3 44.2 15 57.9 23.7 19.5 12.4 29.3 27.5 29.3 45v94.5c0.3 22.1-17.7 40.1-39.8 40.1zM137.7 780.1v94.2h750v-94.5c0-2-2.8-6.2-10.8-11.3-10.2-6.5-26.2-12.9-47.4-19-42.3-12.1-99.8-21.5-155.3-30.6-15.8-2.6-32.1-5.2-47.7-7.9-23.4-3.3-40.8-16.4-47.8-36.1-7.4-20.7-1.8-44.7 14.6-62.6 41.3-46.3 90.5-118.4 90.5-199.7 0-74.8-16.6-142.1-46.8-189.5-21.4-33.6-60.4-73.7-124.8-73.7s-103.5 40-124.9 73.6c-30.2 47.4-46.8 114.7-46.8 189.5 0 75.3 29.6 140.4 90.4 198.8 16.3 15.6 23.6 37.6 19.1 57.4-2.5 11.2-11.3 31.5-41.6 41.4l-1.1 0.4-1.1 0.2c-21.6 4.4-45 8.6-69.8 13-48.1 8.6-97.8 17.5-136.9 28.3-53.9 15-61.1 26.5-61.8 28.1z" fill="#666666" p-id="27267"></path></svg>