<?xml version="1.0" standalone="no"?><!DOCTYPE svg PUBLIC "-//W3C//DTD SVG 1.1//EN" "http://www.w3.org/Graphics/SVG/1.1/DTD/svg11.dtd"><svg t="1606894129791" class="icon" viewBox="0 0 1024 1024" version="1.1" xmlns="http://www.w3.org/2000/svg" p-id="4300" width="16" height="16" xmlns:xlink="http://www.w3.org/1999/xlink"><defs><style type="text/css"></style></defs><path d="M853.333333 1024 170.666667 1024c-25.6 0-42.666667-17.066667-42.666667-42.666667L128 42.666667c0-25.6 17.066667-42.666667 42.666667-42.666667l682.666667 0c25.6 0 42.666667 17.066667 42.666667 42.666667l0 938.666667C896 1006.933333 878.933333 1024 853.333333 1024zM213.333333 938.666667l597.333333 0L810.666667 85.333333 213.333333 85.333333 213.333333 938.666667z" p-id="4301" fill="#8a8a8a"></path><path d="M682.666667 298.666667 341.333333 298.666667C315.733333 298.666667 298.666667 281.6 298.666667 256s17.066667-42.666667 42.666667-42.666667l341.333333 0c25.6 0 42.666667 17.066667 42.666667 42.666667S708.266667 298.666667 682.666667 298.666667z" p-id="4302" fill="#8a8a8a"></path><path d="M512 469.333333 341.333333 469.333333c-25.6 0-42.666667-17.066667-42.666667-42.666667s17.066667-42.666667 42.666667-42.666667l170.666667 0c25.6 0 42.666667 17.066667 42.666667 42.666667S537.6 469.333333 512 469.333333z" p-id="4303" fill="#8a8a8a"></path><path d="M512 640 341.333333 640c-25.6 0-42.666667-17.066667-42.666667-42.666667s17.066667-42.666667 42.666667-42.666667l170.666667 0c25.6 0 42.666667 17.066667 42.666667 42.666667S537.6 640 512 640z" p-id="4304" fill="#8a8a8a"></path><path d="M682.666667 469.333333l-42.666667 0c-25.6 0-42.666667-17.066667-42.666667-42.666667s17.066667-42.666667 42.666667-42.666667l42.666667 0c25.6 0 42.666667 17.066667 42.666667 42.666667S708.266667 469.333333 682.666667 469.333333z" p-id="4305" fill="#8a8a8a"></path><path d="M682.666667 640l-42.666667 0c-25.6 0-42.666667-17.066667-42.666667-42.666667s17.066667-42.666667 42.666667-42.666667l42.666667 0c25.6 0 42.666667 17.066667 42.666667 42.666667S708.266667 640 682.666667 640z" p-id="4306" fill="#8a8a8a"></path><path d="M597.333333 810.666667l-170.666667 0c-25.6 0-42.666667-17.066667-42.666667-42.666667s17.066667-42.666667 42.666667-42.666667l170.666667 0c25.6 0 42.666667 17.066667 42.666667 42.666667S622.933333 810.666667 597.333333 810.666667z" p-id="4307" fill="#8a8a8a"></path></svg>