<?xml version="1.0" standalone="no"?><!DOCTYPE svg PUBLIC "-//W3C//DTD SVG 1.1//EN" "http://www.w3.org/Graphics/SVG/1.1/DTD/svg11.dtd"><svg t="1599127777683" class="icon" viewBox="0 0 1024 1024" version="1.1" xmlns="http://www.w3.org/2000/svg" p-id="91310" width="32" height="32" xmlns:xlink="http://www.w3.org/1999/xlink"><defs><style type="text/css"></style></defs><path d="M887.5006483 819.33956741c130.73461097-11.93240652 122.69310103-132.80991763 111.02041125-169.90329363-25.16096948-83.525632-84.30356859-153.56177067-162.12150044-196.10191645 33.980416-30.60895289 55.25048889-74.96468859 55.25048889-124.25018785 0-86.37887525-65.88673897-157.712384-150.18909392-165.7526803-5.44676978-0.51821985-14.00771318-0.77793659-19.45448297-0.77793659 8.55972978 5.70648652 23.6050963 43.83751585 31.12717274 59.92053571 45.13488592 9.59738311 81.45032533 53.6946157 81.45032533 108.94631822 0 49.02578252-21.52978963 79.89323852-64.58936888 97.0139117-30.34923615 15.56358637-31.12717275 35.79600592-18.67654638 42.79986253l-1.55587317 1.03765333c11.15446992 3.37267675 22.04800948 14.00771318 32.68425955 18.41682962 75.48412208 32.16482608 127.62165097 88.71268503 153.8214874 163.41887052 9.85709985 27.75570963 27.23627615 97.53213155-50.06343585 111.79956148 1.55465955 5.18583941 3.88968297 39.16625541 1.29615645 53.43247171zM134.47744475 819.33956741c-130.73461097-11.93240652-122.95281778-132.80991763-111.280128-169.90329363 25.16096948-83.525632 84.30356859-153.56177067 162.38121717-196.10191645-33.980416-30.60895289-55.51020563-74.96468859-55.51020562-124.25018785 0-86.37887525 66.14524208-157.712384 150.44881067-165.7526803 5.44676978-0.51821985 13.74799645-0.77793659 19.19476621-0.77793659-8.55972978 5.70648652-23.6050963 43.83751585-30.867456 59.92053571-45.13488592 9.59738311-81.70882845 53.6946157-81.70882843 108.94631822 0 49.02578252 21.78950637 79.89323852 64.58936888 97.0139117 30.60895289 15.56358637 31.12717275 35.79600592 18.93626312 42.79986253l1.55587317 1.03765333c-11.15446992 3.37267675-22.04800948 14.00771318-32.68425955 18.41682962-75.48412208 32.16482608-127.62165097 88.71268503-154.07999052 163.41887052-9.85709985 27.75570963-27.23627615 97.53213155 50.3231526 111.79956148-1.55830045 5.18583941-3.89332385 39.16625541-1.2985837 53.43247171z" fill="#666666" p-id="91311"></path><path d="M619.02635615 473.30706015c57.06729245-35.53750282 94.93860503-99.08921837 94.93860503-171.2006637 0-111.53984475-90.26977185-201.80961659-201.80961659-201.8096166-111.280128 0-201.54989985 90.26977185-201.54989984 201.8096166 0 71.073792 36.83365925 133.58785422 92.3450785 169.38507377C266.50942578 513.25367941 167.93842725 616.49351111 167.93842725 776.02148503c0 185.46688 683.76500148 180.79804682 680.6520415 0-2.85324325-158.49032059-95.97625837-259.39512889-229.5641126-302.71442488zM369.48832711 301.32845985c0-78.59708208 63.8114323-142.40730075 142.66701748-142.40730074 78.59708208 0 142.40730075 63.8114323 142.40730074 142.40730074 0 78.85558518-63.8114323 142.66701748-142.40730074 142.66701748-78.85558518 0-142.66701748-63.81021867-142.66701748-142.66701748zM226.56159289 776.02148503c0-149.67087408 122.43459792-261.72893867 281.70285511-261.72893866s279.62754845 118.54370133 279.62754845 259.653632c0 102.72039822-563.66421333 109.98275792-561.33040356 2.07530666z" fill="#666666" p-id="91312"></path></svg>