<?xml version="1.0" standalone="no"?><!DOCTYPE svg PUBLIC "-//W3C//DTD SVG 1.1//EN" "http://www.w3.org/Graphics/SVG/1.1/DTD/svg11.dtd"><svg t="1599128401858" class="icon" viewBox="0 0 1024 1024" version="1.1" xmlns="http://www.w3.org/2000/svg" p-id="43481" width="32" height="32" xmlns:xlink="http://www.w3.org/1999/xlink"><defs><style type="text/css"></style></defs><path d="M998.547602 538.858496a25.653248 25.653248 0 0 0 0-51.079475h-47.674176a474.698589 474.698589 0 0 0-8.172717-63.111529l45.403978-12.486094a25.426228 25.426228 0 0 0-13.167153-49.263316l-45.403978 12.259074a427.478452 427.478452 0 0 0-24.291128-58.798152l41.0906-22.701989a25.426228 25.426228 0 1 0-25.426228-44.268878l-41.31762 23.837088a400.009045 400.009045 0 0 0-38.593381-50.398415l33.598944-33.825964a25.426228 25.426228 0 0 0-36.096163-36.096162l-34.052983 32.690864a400.009045 400.009045 0 0 0-50.398416-38.593381l22.701989-41.31762a25.426228 25.426228 0 1 0-44.268878-25.426228l-22.701989 41.0906a427.478452 427.478452 0 0 0-58.798152-24.291128l12.259074-45.403978A25.426228 25.426228 0 0 0 615.338029 37.8256l-12.486094 45.403978a476.741768 476.741768 0 0 0-62.88451-8.172716V28.063745a25.653248 25.653248 0 1 0-51.079475 0v47.447157a474.698589 474.698589 0 0 0-63.111529 8.172716l-12.486094-45.403978a25.426228 25.426228 0 0 0-49.263316 13.167153l12.259074 45.403978a427.478452 427.478452 0 0 0-58.798151 24.291128l-22.701989-41.0906a25.426228 25.426228 0 1 0-44.268879 25.426228l23.837089 41.31762a400.009045 400.009045 0 0 0-50.398416 38.593381L188.086597 152.016604a25.426228 25.426228 0 0 0-36.096163 36.096163l33.598944 33.825963a400.009045 400.009045 0 0 0-38.593381 50.398416l-41.31762-23.837089a25.426228 25.426228 0 1 0-25.426228 44.268879l41.0906 22.701989a427.478452 427.478452 0 0 0-24.291128 58.798151l-45.403978-12.259074a25.426228 25.426228 0 0 0-13.167153 49.263316l45.403977 12.486094a474.698589 474.698589 0 0 0-8.172716 63.111529h-47.674176a25.653248 25.653248 0 1 0 0 51.079476h47.447157a476.741768 476.741768 0 0 0 8.172716 62.884509l-45.403978 12.486094a25.426228 25.426228 0 0 0 13.167153 49.263316l45.403978-12.259074a427.478452 427.478452 0 0 0 24.291128 58.798151l-41.0906 22.701989a25.426228 25.426228 0 1 0 25.426228 44.268879l41.31762-22.701989a400.009045 400.009045 0 0 0 38.593381 50.398415l-33.371924 34.507023a25.426228 25.426228 0 0 0 36.096163 36.096163l33.825963-33.598944a400.009045 400.009045 0 0 0 50.398416 38.593381l-23.837089 41.31762a25.426228 25.426228 0 1 0 44.268879 25.426228l22.701989-41.0906a427.478452 427.478452 0 0 0 58.798151 24.291128l-12.259074 45.403978a25.426228 25.426228 0 0 0 49.263316 13.167154l12.486094-45.403978a474.698589 474.698589 0 0 0 63.111529 8.172716v47.674176a25.653248 25.653248 0 0 0 51.079475 0v-47.674176a476.741768 476.741768 0 0 0 62.88451-8.172716l12.486094 45.403978a25.426228 25.426228 0 0 0 49.263316-13.167154l-12.259074-45.403978a427.478452 427.478452 0 0 0 58.798151-24.291128l22.701989 41.0906a25.426228 25.426228 0 1 0 44.268879-25.426228l-22.701989-41.31762a400.009045 400.009045 0 0 0 50.398415-38.593381l33.825964 33.598944a25.426228 25.426228 0 0 0 36.096162-36.096163l-33.598944-33.825963a400.009045 400.009045 0 0 0 38.593382-50.398416l41.31762 22.701989a25.426228 25.426228 0 1 0 25.426227-44.268878l-41.0906-22.701989a427.478452 427.478452 0 0 0 24.291128-58.798151l45.403978 12.259074a25.426228 25.426228 0 0 0 14.529273-47.901197l-45.403978-12.486094a476.741768 476.741768 0 0 0 8.172716-62.884509z m-485.368523 17.026492a42.679739 42.679739 0 1 1 42.679739-42.679739 42.452719 42.452719 0 0 1-42.679739 42.679739zM470.726359 175.399653l12.713114 22.701989V433.748287a84.905439 84.905439 0 0 0-55.392853 79.683981 72.192325 72.192325 0 0 0 1.362119 14.075234l-204.3179 118.050342H199.210571a340.529834 340.529834 0 0 1 272.423868-469.931171zM513.179079 853.735083a340.529834 340.529834 0 0 1-271.288768-134.849815l12.713113-22.701988 204.317901-118.050343a85.132459 85.132459 0 0 0 108.515507 0l204.317901 118.050343 12.713113 22.701988A340.529834 340.529834 0 0 1 513.179079 853.735083z m313.968507-208.631279h-25.426228l-204.3179-118.050342a92.397095 92.397095 0 0 0 1.135099-13.848213 84.905439 84.905439 0 0 0-55.619873-79.456962V197.420582l12.713114-22.701989a340.529834 340.529834 0 0 1 272.423867 469.704152z" fill="#666666" p-id="43482"></path></svg>